<?xml version="1.0" standalone="no"?>
<!DOCTYPE svg PUBLIC "-//W3C//DTD SVG 20010904//EN"
 "http://www.w3.org/TR/2001/REC-SVG-20010904/DTD/svg10.dtd">
<svg version="1.0" xmlns="http://www.w3.org/2000/svg"
 width="260.000000pt" height="260.000000pt" viewBox="0 0 260.000000 260.000000"
 preserveAspectRatio="xMidYMid meet">
<metadata>
Created by potrace 1.14, written by Peter Selinger 2001-2017
</metadata>
<g transform="translate(0.000000,260.000000) scale(0.100000,-0.100000)"
fill="#000000" stroke="none">
<path d="M12 2288 c-9 -9 -12 -256 -12 -1050 l0 -1038 1300 0 1300 0 0 1050 0
1050 -1288 0 c-988 0 -1291 -3 -1300 -12z m356 -292 c121 -123 121 -122 0
-243 -72 -72 -99 -93 -120 -93 -24 0 -48 23 -48 45 0 4 34 43 77 86 l76 79
-76 80 c-43 44 -77 83 -77 88 0 4 7 18 16 30 28 40 54 28 152 -72z m520 -258
c22 -22 14 -64 -13 -76 -36 -17 -302 -16 -335 1 -30 15 -37 48 -15 71 14 13
43 16 184 16 116 0 171 -4 179 -12z"/>
</g>
</svg>
